<?xml version="1.0" encoding="iso-8859-1"?>
<!-- Uploaded to: SVG Repo, www.svgrepo.com, Generator: SVG Repo Mixer Tools -->
<!DOCTYPE svg PUBLIC "-//W3C//DTD SVG 1.1//EN" "http://www.w3.org/Graphics/SVG/1.1/DTD/svg11.dtd">
<svg fill="#ffffff" height="800px" width="800px" version="1.1" id="Capa_1" xmlns="http://www.w3.org/2000/svg" xmlns:xlink="http://www.w3.org/1999/xlink"
	 viewBox="0 0 420.046 420.046" xml:space="preserve">
<g>
	<path d="M344.64,131.293c-1.252-2.594-3.877-4.243-6.756-4.243c-0.006,0-0.012,0-0.016,0l-9.018,0.019
		c-2.885,0.006-5.512,1.666-6.754,4.271l-73.84,154.787c-1.109,2.324-0.947,5.054,0.426,7.231c1.373,2.177,3.77,3.498,6.344,3.498
		h11.08c2.891,0,5.523-1.662,6.77-4.271l19.32-40.504h82.928l19.545,40.533c1.25,2.594,3.875,4.243,6.756,4.243h11.102
		c0.008,0,0.014,0,0.02,0c4.143,0,7.5-3.358,7.5-7.5c0-1.359-0.361-2.634-0.994-3.734L344.64,131.293z M304.124,227.081
		l29.314-61.453l29.631,61.453H304.124z"/>
	<path d="M132.87,135.361l-3.99-8.014c-1.27-2.547-3.869-4.157-6.715-4.157H10.218c-4.143,0-7.5,3.358-7.5,7.5v10
		c0,4.142,3.357,7.5,7.5,7.5h86.969L1.484,276.696c-1.688,2.267-1.957,5.292-0.697,7.822l3.99,8.015
		c1.268,2.547,3.867,4.157,6.713,4.157h111.318c4.143,0,7.5-3.358,7.5-7.5v-10c0-4.142-3.357-7.5-7.5-7.5H36.47l95.701-128.507
		C133.861,140.916,134.13,137.892,132.87,135.361z"/>
	<path d="M244.65,226.049l-7.873-6.165c-1.564-1.226-3.549-1.78-5.529-1.54c-1.975,0.241-3.773,1.255-5,2.822l-18.23,23.285V130.69
		c0-4.142-3.357-7.5-7.5-7.5h-10c-4.143,0-7.5,3.358-7.5,7.5v113.76l-18.232-23.285c-1.227-1.566-3.023-2.581-4.998-2.822
		c-1.982-0.241-3.965,0.314-5.531,1.54l-7.873,6.165c-3.26,2.553-3.834,7.267-1.281,10.528l44.51,56.847
		c1.422,1.816,3.6,2.876,5.906,2.876c2.305,0,4.482-1.06,5.904-2.876l44.51-56.847C248.486,233.316,247.911,228.602,244.65,226.049z
		"/>
</g>
</svg>