<?xml version="1.0" encoding="iso-8859-1"?>
<!-- Uploaded to: SVG Repo, www.svgrepo.com, Generator: SVG Repo Mixer Tools -->
<!DOCTYPE svg PUBLIC "-//W3C//DTD SVG 1.1//EN" "http://www.w3.org/Graphics/SVG/1.1/DTD/svg11.dtd">
<svg fill="#ffffff" height="800px" width="800px" version="1.1" id="Capa_1" xmlns="http://www.w3.org/2000/svg" xmlns:xlink="http://www.w3.org/1999/xlink"
	 viewBox="0 0 413.156 413.156" xml:space="preserve">
<g>
	<path d="M97.113,127.848c-1.251-2.594-3.877-4.243-6.756-4.243c-0.005,0-0.011,0-0.016,0l-9.018,0.019
		c-2.885,0.006-5.512,1.666-6.754,4.271L0.731,282.682c-1.108,2.324-0.947,5.054,0.427,7.231c1.373,2.177,3.769,3.498,6.343,3.498
		h11.08c2.891,0,5.524-1.662,6.769-4.271l19.321-40.504h82.928l19.544,40.533c1.251,2.594,3.876,4.243,6.756,4.243H165
		c0.008,0,0.015,0,0.019,0c4.143,0,7.5-3.358,7.5-7.5c0-1.359-0.361-2.634-0.993-3.734L97.113,127.848z M56.599,223.636
		l29.314-61.453l29.631,61.453H56.599z"/>
	<path d="M412.37,131.916l-3.99-8.014c-1.269-2.547-3.868-4.157-6.714-4.157H289.719c-4.143,0-7.5,3.358-7.5,7.5v10
		c0,4.142,3.357,7.5,7.5,7.5h86.968l-95.702,128.506c-1.689,2.267-1.958,5.292-0.698,7.822l3.99,8.015
		c1.269,2.547,3.868,4.157,6.714,4.157h111.318c4.142,0,7.5-3.358,7.5-7.5v-10c0-4.142-3.358-7.5-7.5-7.5H315.97l95.702-128.507
		C413.36,137.471,413.63,134.447,412.37,131.916z"/>
	<path d="M271.818,222.604l-7.873-6.165c-1.564-1.226-3.55-1.78-5.53-1.54c-1.975,0.241-3.772,1.255-4.999,2.822l-18.231,23.285
		v-113.76c0-4.142-3.357-7.5-7.5-7.5h-10c-4.143,0-7.5,3.358-7.5,7.5v113.76l-18.232-23.285c-1.227-1.566-3.024-2.581-4.999-2.822
		c-1.981-0.241-3.965,0.314-5.53,1.54l-7.873,6.165c-3.261,2.553-3.835,7.267-1.281,10.528l44.51,56.847
		c1.422,1.816,3.6,2.876,5.905,2.876c2.306,0,4.483-1.061,5.905-2.876l44.51-56.847
		C275.652,229.871,275.078,225.157,271.818,222.604z"/>
</g>
</svg>