<svg xmlns="http://www.w3.org/2000/svg" viewBox="0 0 36 36" width="36" height="36" aria-hidden="true"><path fill="currentColor" d="M18 3 3 30h30L18 3Zm0 4.95L27.8 27H8.2L18 7.95Z"/><path fill="currentColor" d="M20.84 11.46c.22 2.36-.74 3.56-1.84 4.83-1.07 1.24-2.25 2.46-2.25 4.46 0 1.93 1.32 3.75 3.75 3.75 2.35 0 4.5-1.79 4.5-4.88 0-2.72-1.55-5.3-4.16-8.16ZM15 15.75c-1.83 1.38-3 3.34-3 5.63 0 3.31 2.69 6 6 6s6-2.69 6-6h-3c0 1.66-1.34 3-3 3s-3-1.34-3-3c0-1.41.92-2.43 2.03-3.7.84-.95 1.8-2.11 1.97-4.18-1.48.73-2.91 1.65-4 2.25Z"/></svg>