<svg xmlns="http://www.w3.org/2000/svg" viewBox="0 0 36 36" width="36" height="36" aria-hidden="true"><path fill="currentColor" d="M18 3 3 30h30L18 3Zm0 4.95L27.8 27H8.2L18 7.95Z"/><path fill="currentColor" d="M13.5 13.5a2.25 2.25 0 1 1 0 4.5 2.25 2.25 0 0 1 0-4.5ZM22.5 13.5a2.25 2.25 0 1 1 0 4.5 2.25 2.25 0 0 1 0-4.5Z"/><path fill="currentColor" d="M12 21c1.6 1.32 3.78 2.25 6 2.25s4.4-.93 6-2.25v3c-1.74 1.13-3.9 1.8-6 1.8s-4.26-.67-6-1.8v-3Z"/><path fill="currentColor" d="M16.5 9h3v3h-3z"/></svg>