<svg xmlns="http://www.w3.org/2000/svg" viewBox="0 0 36 36" width="36" height="36" aria-hidden="true"><path fill="currentColor" d="M18 3 3 30h30L18 3Zm0 4.95L27.8 27H8.2L18 7.95Z"/><path fill="currentColor" d="M11.25 12h13.5v3h-1.5v5.25l2.25 2.25v2.25h-15V22.5l2.25-2.25V15h-1.5v-3Zm4.5 3v6.49l-1.76 1.76h8.01l-1.75-1.76V15h-4.5Z"/><path fill="currentColor" d="M9 27.75c1.43 1.28 2.57 1.28 4 0 1.43 1.28 2.57 1.28 4 0 1.43 1.28 2.57 1.28 4 0 1.43 1.28 2.57 1.28 4 0v1.5c-1.43 1.28-2.57 1.28-4 0-1.43 1.28-2.57 1.28-4 0-1.43 1.28-2.57 1.28-4 0-1.43 1.28-2.57 1.28-4 0v-1.5Z"/></svg>