<svg xmlns="http://www.w3.org/2000/svg" viewBox="0 0 36 36" width="36" height="36" aria-hidden="true"><path fill="currentColor" d="M18 3 3 30h30L18 3Zm0 4.95L27.8 27H8.2L18 7.95Z"/><path fill="currentColor" d="M18 10.5a4.5 4.5 0 1 1 0 9 4.5 4.5 0 0 1 0-9Zm-7.5 12.75c2-1.4 4.73-2.25 7.5-2.25s5.5.85 7.5 2.25v2.25h-15v-2.25Z"/><path fill="currentColor" d="M4.5 31.5c1.57-1.5 3.43-1.5 5 0 1.57-1.5 3.43-1.5 5 0 1.57-1.5 3.43-1.5 5 0 1.57-1.5 3.43-1.5 5 0 1.57-1.5 3.43-1.5 5 0V33c-1.57-1.5-3.43-1.5-5 0-1.57-1.5-3.43-1.5-5 0-1.57-1.5-3.43-1.5-5 0-1.57-1.5-3.43-1.5-5 0-1.57-1.5-3.43-1.5-5 0v-1.5Z"/></svg>