<svg xmlns="http://www.w3.org/2000/svg" viewBox="0 0 36 36" width="36" height="36" aria-hidden="true"><path fill="currentColor" d="M16.5 3h3v3.26a4.5 4.5 0 1 1-3 0V3Zm1.5 6a1.5 1.5 0 1 0 0 3 1.5 1.5 0 0 0 0-3Z"/><path fill="currentColor" d="M16.5 12.75h3v8.55c2.39-.24 4.49-1.27 6.23-3l2.12 2.12c-2.33 2.31-5.16 3.67-8.35 3.93V28.5h4.5v3h-12v-3h4.5v-4.15c-3.19-.26-6.02-1.62-8.35-3.93l2.12-2.12c1.74 1.73 3.84 2.76 6.23 3v-8.55Z"/><path fill="currentColor" d="M28.5 6a1.5 1.5 0 0 1 1.5 1.5v7.88l2.03-2.03 2.12 2.12-5.65 5.66-5.65-5.66 2.12-2.12L27 15.38V9h-2.25V6h3.75Z"/><path fill="currentColor" d="M27 22.5h3v3h-3zM27 27h3v3h-3zM27 31.5h3V33h-3z"/></svg>