<svg width="24" height="24" viewBox="0 0 24 24" fill="none" xmlns="http://www.w3.org/2000/svg">
<path fill-rule="evenodd" clip-rule="evenodd" d="M15.5614 3.08068L14.8769 4.53299C13.9841 4.18881 13.0141 4.00012 12 4.00012C10.9859 4.00012 10.0159 4.18882 9.12308 4.53301L8.43854 3.08068C8.09427 2.35028 7.19926 2.07011 6.49997 2.47385C5.80068 2.87758 5.59581 3.79277 6.05622 4.45611L6.97279 5.77666C5.4642 6.9968 4.40818 8.75431 4.09584 10.7581L2.49482 10.6247C1.69014 10.5576 1 11.1926 1 12.0001C1 12.8076 1.69014 13.4426 2.49482 13.3755L4.09583 13.2421C4.40816 15.2459 5.4642 17.0034 6.9728 18.2236L6.05628 19.5441C5.59587 20.2074 5.80074 21.1226 6.50003 21.5263C7.19933 21.9301 8.09433 21.6499 8.4386 20.9195L9.12311 19.4672C10.0159 19.8114 10.9859 20.0001 12 20.0001C13.0141 20.0001 13.9841 19.8114 14.8769 19.4672L15.5614 20.9195C15.9057 21.6499 16.8007 21.9301 17.5 21.5263C18.1993 21.1226 18.4041 20.2074 17.9437 19.5441L17.0272 18.2236C18.5358 17.0034 19.5918 15.2459 19.9042 13.2421L21.5052 13.3755C22.3099 13.4426 23 12.8076 23 12.0001C23 11.1926 22.3099 10.5576 21.5052 10.6247L19.9042 10.7581C19.5918 8.7543 18.5358 6.99677 17.0272 5.77663L17.9437 4.45611C18.4041 3.79277 18.1993 2.87758 17.5 2.47385C16.8007 2.07011 15.9057 2.35028 15.5614 3.08068ZM12 18.0001C15.3137 18.0001 18 15.3138 18 12.0001C18 8.68641 15.3137 6.00012 12 6.00012C8.68629 6.00012 6 8.68641 6 12.0001C6 15.3138 8.68629 18.0001 12 18.0001Z" fill="#ffffff"/>
<path d="M14.348 16.0001L13.676 13.8881H10.532L9.86 16.0001H8L11.06 7.39612H13.136L16.208 16.0001H14.348ZM12.104 8.70412C11.789 9.9641 11.3646 11.1982 10.976 12.4361H13.256C12.8597 11.1968 12.4353 9.96289 12.104 8.70412Z" fill="#ffffff"/>
</svg>
