<svg width="24" height="24" viewBox="0 0 24 24" fill="none" xmlns="http://www.w3.org/2000/svg">
<path fill-rule="evenodd" clip-rule="evenodd" d="M11 3C6.58172 3 3 6.58172 3 11C3 15.4183 6.58172 19 11 19C15.4183 19 19 15.4183 19 11C19 9.31035 18.476 7.74308 17.5816 6.45278L19.9142 4.12017L21.3284 5.53438L18.9958 7.86699C19.8901 9.15728 20.4142 10.7246 20.4142 12.4142H18.4142C18.4142 8.83232 15.5118 5.92995 11.9299 5.92995C8.34803 5.92995 5.44566 8.83232 5.44566 12.4142C5.44566 15.996 8.34803 18.8984 11.9299 18.8984C14.6639 18.8984 16.9344 17.2059 17.7567 14.8284H13.5858V12.8284H20.1716V19.4142H18.1716V16.452C16.8837 18.5997 14.5314 20.0413 11.8431 20.0413C7.15351 20.0413 3.35156 16.2394 3.35156 11.5498C3.35156 6.86015 7.15351 3.0582 11.8431 3.0582L11 3ZM10.9999 8.00003C12.6567 8.00003 13.9999 9.34317 13.9999 11C13.9999 12.0544 13.4562 12.9818 12.6339 13.518L14.4141 15.2982L12.9999 16.7124L11.2197 14.9322C10.6835 15.7545 9.75603 16.2982 8.70166 16.2982C7.0448 16.2982 5.70166 14.955 5.70166 13.2982C5.70166 11.6414 7.0448 10.2982 8.70166 10.2982C9.21385 10.2982 9.69605 10.4266 10.1178 10.653L11.0057 9.76518C10.8242 9.53395 10.7177 9.24275 10.7177 8.92668C10.7177 8.41513 11.1325 8.00003 11.6439 8.00003H10.9999ZM8.70166 12.2982C8.14937 12.2982 7.70166 12.7459 7.70166 13.2982C7.70166 13.8505 8.14937 14.2982 8.70166 14.2982C9.25394 14.2982 9.70166 13.8505 9.70166 13.2982C9.70166 12.7459 9.25394 12.2982 8.70166 12.2982Z" fill="#ffffff"/>
</svg>
