<svg width="24" height="24" viewBox="0 0 24 24" fill="none" xmlns="http://www.w3.org/2000/svg">
<path fill-rule="evenodd" clip-rule="evenodd" d="M5 4C4.44772 4 4 4.44772 4 5C4 5.55228 4.44772 6 5 6H19C19.5523 6 20 5.55228 20 5C20 4.44772 19.5523 4 19 4H5ZM5 9C4.44772 9 4 9.44772 4 10C4 10.5523 4.44772 11 5 11H15C15.5523 11 16 10.5523 16 10C16 9.44772 15.5523 9 15 9H5ZM9 14C8.44772 14 8 14.4477 8 15C8 15.5523 8.44772 16 9 16H19C19.5523 16 20 15.5523 20 15C20 14.4477 19.5523 14 19 14H9ZM5 18C4.44772 18 4 18.4477 4 19C4 19.5523 4.44772 20 5 20H15C15.5523 20 16 19.5523 16 19C16 18.4477 15.5523 18 15 18H5Z" fill="#ffffff"/>
<path fill-rule="evenodd" clip-rule="evenodd" d="M18.2929 7.29291C18.6834 6.90239 19.3166 6.90239 19.7071 7.29291L21.7071 9.29291C22.0976 9.68344 22.0976 10.3166 21.7071 10.7071L19.7071 12.7071C19.3166 13.0977 18.6834 13.0977 18.2929 12.7071C17.9024 12.3166 17.9024 11.6834 18.2929 11.2929L19.5858 10L18.2929 8.70712C17.9024 8.3166 17.9024 7.68344 18.2929 7.29291ZM5.70711 12.2929C6.09763 12.6834 6.09763 13.3166 5.70711 13.7071L4.41421 15L5.70711 16.2929C6.09763 16.6834 6.09763 17.3166 5.70711 17.7071C5.31658 18.0977 4.68342 18.0977 4.29289 17.7071L2.29289 15.7071C1.90237 15.3166 1.90237 14.6834 2.29289 14.2929L4.29289 12.2929C4.68342 11.9024 5.31658 11.9024 5.70711 12.2929Z" fill="#ffffff"/>
</svg>
